<svg width="70" height="70" viewBox="0 0 70 70" fill="none" xmlns="http://www.w3.org/2000/svg">
<path d="M12.7613 7.46905C12.7613 5.59305 14.2873 4.08105 16.1633 4.08105H53.8373C55.7133 4.08105 57.2393 5.59305 57.2393 7.46905V35.1471H12.7613V7.46905ZM25.3473 18.3611L29.4213 22.3231L28.4693 27.9231C28.3153 28.7771 29.2113 29.4211 29.9673 29.0151L35.0073 26.3691L40.0333 29.0151C40.7893 29.4211 41.6853 28.7771 41.5313 27.9231L40.5793 22.3231L44.6533 18.3611C45.2693 17.7591 44.9193 16.7091 44.0653 16.5831L38.4513 15.7711L35.9313 10.6751C35.5533 9.89105 34.4473 9.89105 34.0693 10.6751L31.5493 15.7711L25.9353 16.5831C25.0813 16.7091 24.7313 17.7591 25.3473 18.3611Z" fill="#754EE1"/>
<path d="M57.2393 62.5309C57.2393 64.4069 55.7133 65.9189 53.8373 65.9189H16.1633C14.2873 65.9189 12.7613 64.4069 12.7613 62.5309V56.4409H57.2393V62.5309Z" fill="#754EE1"/>
<path d="M5.46713 50.5609L1.54713 44.0789C1.14113 43.3929 1.63113 42.5249 2.42913 42.5249H8.11313V52.9689C8.11313 54.5649 9.19113 55.9089 10.6611 56.3149V58.6109H2.42913C1.63113 58.6109 1.14113 57.7289 1.54713 57.0569L5.46713 50.5609Z" fill="#754EE1"/>
<path d="M61.8869 52.9689V42.5249H67.5709C68.3689 42.5249 68.8589 43.3929 68.4529 44.0789L64.5329 50.5609L68.4529 57.0569C68.8589 57.7289 68.3689 58.6109 67.5709 58.6109H59.3389V56.3149C60.8089 55.9089 61.8869 54.5649 61.8869 52.9689Z" fill="#754EE1"/>
<path d="M10.2171 52.9619V38.6203C10.2171 37.8587 10.8345 37.2427 11.5947 37.2427H58.4036C59.1652 37.2427 59.7812 37.8601 59.7812 38.6203V52.9619C59.7812 53.7235 59.1638 54.3395 58.4036 54.3395H11.5947C10.8345 54.3409 10.2171 53.7235 10.2171 52.9619ZM23.0761 46.8411H46.9237C47.5033 46.8411 47.9737 46.3707 47.9737 45.7911C47.9737 45.2115 47.5033 44.7411 46.9237 44.7411H23.0775C22.4979 44.7411 22.0275 45.2115 22.0275 45.7911C22.0275 46.3707 22.4965 46.8411 23.0761 46.8411Z" fill="#754EE1"/>
</svg>
