<svg width="606" height="225" viewBox="0 0 606 225" fill="none" xmlns="http://www.w3.org/2000/svg">
<path d="M493.236 135.723C491.766 135.723 490.296 135.449 488.9 134.903C486.16 133.831 484.036 131.835 482.918 129.283C480.611 124.015 483.363 117.992 489.053 115.855C491.807 114.822 494.836 114.841 497.576 115.914C500.317 116.986 502.44 118.982 503.558 121.534C505.865 126.8 503.113 132.824 497.423 134.962C496.071 135.469 494.654 135.723 493.237 135.723H493.236ZM493.237 118.412C492.276 118.412 491.315 118.583 490.399 118.929C486.539 120.377 484.674 124.462 486.239 128.035C486.996 129.765 488.437 131.118 490.296 131.845C492.152 132.573 494.203 132.59 496.075 131.886C499.934 130.436 501.8 126.35 500.235 122.78C499.477 121.05 498.037 119.695 496.179 118.968C495.233 118.599 494.235 118.412 493.237 118.412Z" fill="url(#paint0_radial_611_3)" fill-opacity="0.7"/>
<path d="M282.745 157.995H0V154.677H281.692L333.587 123.748H483.889V127.065H334.642L282.745 157.995Z" fill="url(#paint1_radial_611_3)" fill-opacity="0.7"/>
<path d="M122.902 188.802C121.541 188.802 120.18 188.528 118.889 187.982C116.352 186.91 114.386 184.914 113.352 182.362C112.317 179.81 112.338 177.008 113.41 174.471C114.483 171.935 116.479 169.969 119.031 168.934C121.583 167.9 124.382 167.92 126.919 168.993C129.456 170.065 131.422 172.061 132.456 174.613C133.492 177.165 133.47 179.967 132.4 182.503C131.327 185.039 129.332 187.006 126.78 188.041C125.528 188.548 124.215 188.802 122.902 188.802ZM122.903 171.492C122.016 171.492 121.126 171.665 120.277 172.009C118.547 172.71 117.192 174.044 116.465 175.765C115.737 177.483 115.724 179.385 116.426 181.115C117.127 182.845 118.46 184.2 120.18 184.927C121.901 185.652 123.801 185.669 125.531 184.966C127.261 184.264 128.614 182.931 129.342 181.211C130.07 179.49 130.084 177.59 129.381 175.86C128.68 174.13 127.347 172.777 125.627 172.049C124.751 171.678 123.827 171.492 122.903 171.492Z" fill="url(#paint2_radial_611_3)" fill-opacity="0.7"/>
<path d="M351.815 223.892C347.389 225.688 342.344 223.554 340.549 219.127C338.753 214.7 340.887 209.656 345.314 207.861C349.741 206.065 354.785 208.198 356.58 212.625C358.376 217.052 356.242 222.097 351.815 223.892Z" fill="url(#paint3_radial_611_3)" fill-opacity="0.7"/>
<path d="M350.67 217.537H149.555L124.336 186.244L126.919 184.16L151.143 214.218H350.67V217.537Z" fill="url(#paint4_radial_611_3)" fill-opacity="0.7"/>
<path d="M374.264 56.3571C372.903 56.3571 371.542 56.0835 370.25 55.5374C367.714 54.4649 365.747 52.4693 364.712 49.9172C362.576 44.6488 365.124 38.6262 370.391 36.4891C372.943 35.4568 375.746 35.4753 378.282 36.5478C380.819 37.6203 382.785 39.616 383.819 42.168C385.955 47.4353 383.408 53.459 378.14 55.5961C376.887 56.103 375.577 56.3571 374.265 56.3571H374.264ZM371.637 39.5631C368.064 41.0115 366.338 45.096 367.786 48.6688C368.487 50.3989 369.821 51.7519 371.542 52.4796C373.26 53.2073 375.159 53.2234 376.892 52.5198C380.465 51.0691 382.191 46.9847 380.743 43.4142C380.042 41.6841 378.708 40.3298 376.988 39.6022C375.268 38.8756 373.367 38.8596 371.637 39.5631Z" fill="url(#paint5_radial_611_3)" fill-opacity="0.7"/>
<path d="M145.354 0.636492C149.781 -1.15913 154.826 0.974486 156.621 5.40146C158.417 9.82843 156.283 14.8727 151.856 16.6683C147.429 18.4639 142.385 16.3304 140.589 11.9034C138.794 7.47643 140.927 2.43211 145.354 0.636492Z" fill="url(#paint6_radial_611_3)" fill-opacity="0.7"/>
<path d="M370.251 40.369L346.027 10.3103H146.499V6.99255H347.615L372.833 38.2849L370.251 40.369Z" fill="url(#paint7_radial_611_3)" fill-opacity="0.7"/>
<path d="M591.66 85.131H304.616L238.4 42.4649H0V39.1603H239.503L305.719 81.8275H591.66V85.131Z" fill="url(#paint8_radial_611_3)" fill-opacity="0.7"/>
<path d="M399.509 103.296H0V106.615H399.509V103.296Z" fill="url(#paint9_radial_611_3)" fill-opacity="0.7"/>
<path d="M411.918 108.176C413.815 103.742 411.52 98.7054 406.794 96.9263C402.068 95.1473 396.699 97.2995 394.802 101.733C392.906 106.167 395.2 111.204 399.927 112.983C404.653 114.762 410.022 112.61 411.918 108.176Z" fill="url(#paint10_radial_611_3)" fill-opacity="0.7"/>
<path d="M592.593 75.7949C597.312 73.9993 602.689 76.1329 604.603 80.5599C606.517 84.9869 604.243 90.0311 599.524 91.8267C594.805 93.6224 589.428 91.4888 587.513 87.0619C585.599 82.6349 587.874 77.5906 592.593 75.7949Z" fill="url(#paint11_radial_611_3)" fill-opacity="0.7"/>
<defs>
<radialGradient id="paint0_radial_611_3" cx="0" cy="0" r="1" gradientUnits="userSpaceOnUse" gradientTransform="translate(493.238 125.409) scale(10.0226 20.6286)">
<stop offset="0.3" stop-color="white"/>
<stop offset="1" stop-color="white" stop-opacity="0.4"/>
</radialGradient>
<radialGradient id="paint1_radial_611_3" cx="0" cy="0" r="1" gradientUnits="userSpaceOnUse" gradientTransform="translate(241.945 140.871) scale(217.75 34.2478)">
<stop offset="0.3" stop-color="white"/>
<stop offset="1" stop-color="white" stop-opacity="0.4"/>
</radialGradient>
<radialGradient id="paint2_radial_611_3" cx="0" cy="0" r="1" gradientUnits="userSpaceOnUse" gradientTransform="translate(122.904 178.488) scale(9.28243 20.6286)">
<stop offset="0.3" stop-color="white"/>
<stop offset="1" stop-color="white" stop-opacity="0.4"/>
</radialGradient>
<radialGradient id="paint3_radial_611_3" cx="0" cy="0" r="1" gradientUnits="userSpaceOnUse" gradientTransform="translate(348.565 215.876) scale(7.78717 17.3047)">
<stop offset="0.3" stop-color="white"/>
<stop offset="1" stop-color="white" stop-opacity="0.4"/>
</radialGradient>
<radialGradient id="paint4_radial_611_3" cx="0" cy="0" r="1" gradientUnits="userSpaceOnUse" gradientTransform="translate(237.503 200.848) scale(101.85 33.3765)">
<stop offset="0.3" stop-color="white"/>
<stop offset="1" stop-color="white" stop-opacity="0.4"/>
</radialGradient>
<radialGradient id="paint5_radial_611_3" cx="0" cy="0" r="1" gradientUnits="userSpaceOnUse" gradientTransform="translate(374.266 46.043) scale(9.27824 20.6282)">
<stop offset="0.3" stop-color="white"/>
<stop offset="1" stop-color="white" stop-opacity="0.4"/>
</radialGradient>
<radialGradient id="paint6_radial_611_3" cx="0" cy="0" r="1" gradientUnits="userSpaceOnUse" gradientTransform="translate(148.605 8.6524) scale(7.78717 17.3048)">
<stop offset="0.3" stop-color="white"/>
<stop offset="1" stop-color="white" stop-opacity="0.4"/>
</radialGradient>
<radialGradient id="paint7_radial_611_3" cx="0" cy="0" r="1" gradientUnits="userSpaceOnUse" gradientTransform="translate(259.666 23.6808) scale(101.85 33.3765)">
<stop offset="0.3" stop-color="white"/>
<stop offset="1" stop-color="white" stop-opacity="0.4"/>
</radialGradient>
<radialGradient id="paint8_radial_611_3" cx="0" cy="0" r="1" gradientUnits="userSpaceOnUse" gradientTransform="translate(295.83 62.1456) scale(266.247 45.9707)">
<stop offset="0.3" stop-color="white"/>
<stop offset="1" stop-color="white" stop-opacity="0.4"/>
</radialGradient>
<radialGradient id="paint9_radial_611_3" cx="0" cy="0" r="1" gradientUnits="userSpaceOnUse" gradientTransform="translate(199.755 104.956) scale(179.779 3.31875)">
<stop offset="0.3" stop-color="white"/>
<stop offset="1" stop-color="white" stop-opacity="0.4"/>
</radialGradient>
<radialGradient id="paint10_radial_611_3" cx="0" cy="0" r="1" gradientUnits="userSpaceOnUse" gradientTransform="translate(403.36 104.955) rotate(-66.8438) scale(7.85864 18.2704)">
<stop offset="0.3" stop-color="white"/>
<stop offset="1" stop-color="white" stop-opacity="0.4"/>
</radialGradient>
<radialGradient id="paint11_radial_611_3" cx="0" cy="0" r="1" gradientUnits="userSpaceOnUse" gradientTransform="translate(596.058 83.8108) scale(8.30086 17.3048)">
<stop offset="0.3" stop-color="white"/>
<stop offset="1" stop-color="white" stop-opacity="0.4"/>
</radialGradient>
</defs>
</svg>
