<svg width="70" height="70" viewBox="0 0 70 70" fill="none" xmlns="http://www.w3.org/2000/svg">
<path d="M54.6875 26.25C58.3119 26.25 61.25 23.3119 61.25 19.6875C61.25 16.0631 58.3119 13.125 54.6875 13.125C51.0631 13.125 48.125 16.0631 48.125 19.6875C48.125 23.3119 51.0631 26.25 54.6875 26.25Z" fill="#754EE1"/>
<path d="M59.0794 26.25H54.6875H50.2956C46.6663 26.25 43.7556 29.1985 43.75 32.8125H65.625C65.6194 29.1985 62.7087 26.25 59.0794 26.25Z" fill="#754EE1"/>
<path d="M59.0625 65.625H24.0625C20.4381 65.625 17.5 62.6869 17.5 59.0625L65.625 59.0625C65.625 62.6869 62.6869 65.625 59.0625 65.625Z" fill="#754EE1"/>
<path d="M56.875 35H26.25C23.8338 35 21.875 36.9587 21.875 39.375V56.875H61.25V39.375C61.25 36.9587 59.2912 35 56.875 35ZM36.7944 50.5667C37.258 50.9534 37.3199 51.6434 36.9344 52.1069C36.7175 52.3654 36.4067 52.5 36.0927 52.5C35.8459 52.5 35.5981 52.4167 35.3931 52.2458L28.8306 46.777C28.5817 46.5698 28.4375 46.2622 28.4375 45.9375C28.4375 45.6128 28.5817 45.3052 28.8306 45.098L35.3931 39.6292C35.8598 39.2404 36.5488 39.3045 36.9344 39.7681C37.3199 40.2316 37.258 40.9216 36.7944 41.3083L31.2402 45.9375L36.7944 50.5667ZM41.5415 51.6199C41.4369 52.1411 40.9818 52.5 40.4713 52.5C40.3987 52.5 40.326 52.4936 40.2555 52.4786C39.6617 52.3611 39.2771 51.7844 39.3968 51.1926L41.5843 40.2551C41.7039 39.6591 42.3084 39.2746 42.8703 39.3964C43.4641 39.5139 43.8487 40.0906 43.729 40.6824L41.5415 51.6199ZM54.2943 46.7776L47.7318 52.2463C47.5267 52.4172 47.2789 52.5005 47.0322 52.5005C46.7182 52.5005 46.4073 52.366 46.1905 52.1075C45.8049 51.6439 45.8669 50.9539 46.3304 50.5672L51.8846 45.938L46.3304 41.3088C45.8669 40.9222 45.8049 40.2322 46.1905 39.7686C46.5761 39.305 47.265 39.241 47.7318 39.6297L54.2943 45.0985C54.5432 45.3057 54.6874 45.6133 54.6874 45.938C54.6874 46.2627 54.5432 46.5704 54.2943 46.7776Z" fill="#754EE1"/>
<path d="M15.9688 4.375H29.9687L28.4375 8.75H17.5L15.9688 4.375Z" fill="#754EE1"/>
<path d="M39.375 4.375H32.8125L31.1235 9.44174C30.8258 10.3349 29.9899 10.9375 29.0483 10.9375H16.8892C15.9476 10.9375 15.1117 10.3349 14.814 9.44174L13.125 4.375H6.5625C5.35433 4.375 4.375 5.35433 4.375 6.5625V52.5C4.375 53.7082 5.35433 54.6875 6.5625 54.6875H19.6875V39.375C19.6875 35.7562 22.6312 32.8125 26.25 32.8125H41.5625V6.5625C41.5625 5.35433 40.5832 4.375 39.375 4.375ZM17.1796 43.4296L12.8046 47.8046C12.5909 48.0182 12.3111 48.125 12.0312 48.125C11.7514 48.125 11.4716 48.0182 11.2579 47.8046L9.07043 45.6171C8.64319 45.1898 8.64319 44.4977 9.07043 44.0704C9.49768 43.6432 10.1898 43.6432 10.6171 44.0704L12.0312 45.4846L15.6329 41.8829C16.0602 41.4557 16.7523 41.4557 17.1796 41.8829C17.6068 42.3102 17.6068 43.0023 17.1796 43.4296ZM17.1796 30.3046L12.8046 34.6796C12.5909 34.8932 12.3111 35 12.0312 35C11.7514 35 11.4716 34.8932 11.2579 34.6796L9.07043 32.4921C8.64319 32.0648 8.64319 31.3727 9.07043 30.9454C9.49768 30.5182 10.1898 30.5182 10.6171 30.9454L12.0312 32.3596L15.6329 28.7579C16.0602 28.3307 16.7523 28.3307 17.1796 28.7579C17.6068 29.1852 17.6068 29.8773 17.1796 30.3046ZM17.1796 17.1796L12.8046 21.5546C12.5909 21.7682 12.3111 21.875 12.0312 21.875C11.7514 21.875 11.4716 21.7682 11.2579 21.5546L9.07043 19.3671C8.64319 18.9398 8.64319 18.2477 9.07043 17.8204C9.49768 17.3932 10.1898 17.3932 10.6171 17.8204L12.0312 19.2346L15.6329 15.6329C16.0602 15.2057 16.7523 15.2057 17.1796 15.6329C17.6068 16.0602 17.6068 16.7523 17.1796 17.1796Z" fill="#754EE1"/>
</svg>
