<svg width="220" height="60" viewBox="0 0 220 60" fill="none" xmlns="http://www.w3.org/2000/svg">
<g clip-path="url(#clip0_394_64)">
<g clip-path="url(#clip1_394_64)">
<g clip-path="url(#clip2_394_64)">
<path d="M71.1666 29.7971C71.1666 30.1352 71.1068 30.4979 70.987 30.8854C70.8743 31.2728 70.6841 31.6321 70.4165 31.9631C70.1558 32.2942 69.8142 32.5724 69.3915 32.7978C68.9689 33.0162 68.4512 33.1254 67.8383 33.1254H57.4096C57.2123 33.1254 57.0292 33.0902 56.8601 33.0197C56.6911 32.9493 56.5431 32.8542 56.4163 32.7345C56.2966 32.6077 56.2015 32.4597 56.1311 32.2907C56.0606 32.1216 56.0254 31.9385 56.0254 31.7412V19.3578C56.0254 19.1676 56.0606 18.988 56.1311 18.8189C56.2015 18.6499 56.2966 18.5019 56.4163 18.3751C56.5431 18.2484 56.6911 18.1497 56.8601 18.0793C57.0292 18.0089 57.2123 17.9736 57.4096 17.9736H66.6021C66.9402 17.9736 67.3029 18.0335 67.6904 18.1532C68.0778 18.273 68.4371 18.4667 68.7681 18.7344C69.1062 18.995 69.3844 19.3366 69.6028 19.7593C69.8282 20.1819 69.9409 20.6997 69.9409 21.3125V21.8303C69.9409 22.3163 69.86 22.8411 69.6979 23.4047C69.5359 23.9611 69.2753 24.4894 68.916 24.9896C69.226 25.1797 69.5148 25.4086 69.7824 25.6763C70.0572 25.944 70.2967 26.2539 70.5009 26.6061C70.7053 26.9584 70.8673 27.3564 70.987 27.8001C71.1068 28.2438 71.1666 28.7334 71.1666 29.2688V29.7971ZM68.4194 29.2688C68.4194 28.9095 68.3631 28.5891 68.2504 28.3072C68.1377 28.0184 67.9791 27.7719 67.7749 27.5676C67.5706 27.3634 67.3241 27.2084 67.0353 27.1027C66.7465 26.99 66.4225 26.9337 66.0632 26.9337H59.8715V24.1654H64.8269C65.1862 24.1654 65.5103 24.1125 65.7991 24.0069C66.0879 23.8942 66.3344 23.7356 66.5387 23.5314C66.7429 23.3271 66.8979 23.0841 67.0036 22.8024C67.1163 22.5136 67.1726 22.1895 67.1726 21.8303V21.3125C67.1726 20.918 66.9825 20.7208 66.6021 20.7208H58.7726V30.3782H67.8383C67.8876 30.3782 67.9475 30.3747 68.0179 30.3677C68.0883 30.3606 68.1517 30.3395 68.2081 30.3043C68.2644 30.269 68.3137 30.2091 68.356 30.1247C68.3983 30.0401 68.4194 29.9239 68.4194 29.776V29.2688ZM87.9118 31.7412C87.9118 31.9385 87.8765 32.1216 87.8061 32.2907C87.7357 32.4597 87.6371 32.6077 87.5103 32.7345C87.3905 32.8542 87.2461 32.9493 87.077 33.0197C86.915 33.0902 86.7389 33.1254 86.5488 33.1254H80.3358C79.9977 33.1254 79.635 33.0866 79.2476 33.0092C78.8672 32.9317 78.4904 32.8084 78.117 32.6393C77.7436 32.4632 77.3809 32.2449 77.0287 31.9843C76.6835 31.7166 76.3806 31.3961 76.12 31.0228C75.8594 30.6424 75.648 30.2056 75.486 29.7125C75.331 29.2195 75.2536 28.663 75.2536 28.0431V21.7034H78.0008V28.0431C78.0008 28.4024 78.0606 28.7264 78.1804 29.0152C78.3072 29.297 78.4762 29.54 78.6876 29.7443C78.8989 29.9486 79.1454 30.107 79.4272 30.2197C79.716 30.3254 80.026 30.3782 80.357 30.3782H85.1646V21.7034H87.9118V31.7412ZM105.079 34.2243C105.079 34.6962 105.019 35.1188 104.9 35.4922C104.78 35.8726 104.621 36.2037 104.424 36.4855C104.227 36.7743 103.998 37.0172 103.738 37.2145C103.477 37.4187 103.202 37.5843 102.914 37.7111C102.631 37.8379 102.343 37.9294 102.047 37.9858C101.758 38.0492 101.484 38.0809 101.223 38.0809H96.2666V35.3337H101.223C101.596 35.3337 101.874 35.2387 102.057 35.0484C102.24 34.8583 102.332 34.5835 102.332 34.2243V25.5496C102.332 25.1903 102.24 24.9191 102.057 24.7359C101.874 24.5458 101.596 24.4507 101.223 24.4507H96.2666C95.9285 24.4507 95.6616 24.5563 95.4642 24.7677C95.2667 24.9719 95.1684 25.2326 95.1684 25.5496V29.2688C95.1684 29.628 95.2631 29.9028 95.4534 30.0929C95.6436 30.2832 95.9222 30.3782 96.2883 30.3782H101.223V33.1254H96.2666C96.0061 33.1254 95.732 33.0973 95.4425 33.0408C95.154 32.9775 94.8655 32.8824 94.5761 32.7556C94.2948 32.6288 94.0234 32.4668 93.7628 32.2696C93.5022 32.0653 93.2732 31.8223 93.0757 31.5405C92.8792 31.2517 92.7205 30.9206 92.6006 30.5473C92.4807 30.167 92.4211 29.7407 92.4211 29.2688V25.5496C92.4211 25.2889 92.4491 25.0142 92.5059 24.7254C92.569 24.4366 92.6637 24.1513 92.7908 23.8695C92.9179 23.5807 93.0793 23.306 93.2768 23.0454C93.4815 22.7847 93.724 22.5558 94.0062 22.3586C94.2948 22.1613 94.6257 22.0029 94.9989 21.8831C95.3722 21.7633 95.7951 21.7034 96.2666 21.7034H101.223C101.484 21.7034 101.758 21.7352 102.047 21.7986C102.343 21.8549 102.631 21.9465 102.914 22.0733C103.202 22.2001 103.477 22.3656 103.738 22.5699C103.998 22.7671 104.227 23.0101 104.424 23.299C104.621 23.5807 104.78 23.9082 104.9 24.2816C105.019 24.655 105.079 25.0776 105.079 25.5496V34.2243ZM125.206 23.0665C125.206 23.6935 125.128 24.2535 124.973 24.7465C124.818 25.2396 124.607 25.6763 124.339 26.0567C124.079 26.43 123.776 26.7506 123.43 27.0182C123.085 27.2859 122.723 27.5077 122.342 27.6838C121.969 27.8529 121.588 27.9762 121.201 28.0537C120.82 28.1311 120.461 28.1699 120.123 28.1699L125.86 33.1254H121.613L115.886 28.1699H113.91V25.4227H120.123C120.468 25.3946 120.782 25.3242 121.064 25.2115C121.352 25.0916 121.599 24.9332 121.803 24.7359C122.015 24.5387 122.176 24.3027 122.289 24.0281C122.402 23.7463 122.458 23.4258 122.458 23.0665V21.3337C122.458 21.1787 122.437 21.0625 122.395 20.985C122.36 20.9004 122.31 20.8406 122.247 20.8053C122.191 20.7631 122.127 20.7384 122.057 20.7314C121.993 20.7244 121.934 20.7208 121.877 20.7208H112.812V33.1254H110.064V19.3578C110.064 19.1676 110.1 18.988 110.17 18.8189C110.24 18.6499 110.336 18.5019 110.455 18.3751C110.582 18.2484 110.73 18.1497 110.899 18.0793C111.068 18.0089 111.251 17.9736 111.448 17.9736H121.877C122.49 17.9736 123.007 18.0863 123.43 18.3117C123.853 18.5301 124.195 18.8084 124.455 19.1465C124.723 19.4776 124.914 19.8368 125.026 20.2242C125.145 20.6117 125.206 20.9744 125.206 21.3125V23.0665ZM141.465 29.3428C141.465 29.7232 141.397 30.1352 141.264 30.579C141.13 31.0158 140.911 31.4243 140.608 31.8047C140.313 32.178 139.922 32.4915 139.436 32.745C138.957 32.9986 138.372 33.1254 137.682 33.1254H132.726C132.346 33.1254 131.934 33.0585 131.49 32.9246C131.054 32.7908 130.645 32.576 130.265 32.2801C129.891 31.9773 129.578 31.5863 129.324 31.1073C129.07 30.6213 128.944 30.0331 128.944 29.3428C128.944 28.9624 129.011 28.5503 129.145 28.1065C129.278 27.6627 129.493 27.2542 129.789 26.8808C130.092 26.5004 130.483 26.1835 130.962 25.9299C131.448 25.6763 132.036 25.5496 132.726 25.5496H137.682V28.1699H132.726C132.353 28.1699 132.064 28.2861 131.86 28.5186C131.656 28.744 131.553 29.0257 131.553 29.3639C131.553 29.7232 131.67 30.0049 131.902 30.2092C132.142 30.4064 132.423 30.5051 132.748 30.5051H137.682C138.055 30.5051 138.344 30.3924 138.548 30.167C138.753 29.9415 138.855 29.6597 138.855 29.3216V25.4861C138.855 25.1269 138.742 24.8416 138.517 24.6303C138.298 24.419 138.02 24.3133 137.682 24.3133H131.649V21.7034H137.682C138.062 21.7034 138.471 21.7703 138.908 21.9042C139.351 22.038 139.76 22.2564 140.133 22.5593C140.514 22.8552 140.83 23.2462 141.084 23.7321C141.338 24.2112 141.465 24.7958 141.465 25.4861V29.3428ZM158.569 29.2688C158.569 29.7407 158.509 30.167 158.39 30.5473C158.27 30.9206 158.111 31.2517 157.914 31.5405C157.717 31.8223 157.488 32.0653 157.227 32.2696C156.967 32.4668 156.692 32.6288 156.403 32.7556C156.121 32.8824 155.836 32.9775 155.547 33.0408C155.258 33.0973 154.983 33.1254 154.723 33.1254H149.767V30.3782H154.723C155.09 30.3782 155.364 30.2832 155.547 30.0929C155.73 29.9028 155.822 29.628 155.822 29.2688V25.5707C155.822 25.1903 155.727 24.9085 155.537 24.7254C155.353 24.5423 155.082 24.4507 154.723 24.4507H149.789C149.416 24.4507 149.133 24.5458 148.943 24.7359C148.753 24.9191 148.658 25.1903 148.658 25.5496V36.6967H145.911V25.5496C145.911 25.0776 145.97 24.655 146.09 24.2816C146.21 23.9082 146.369 23.5807 146.565 23.299C146.77 23.0101 147.003 22.7671 147.263 22.5699C147.524 22.3656 147.795 22.2001 148.077 22.0733C148.365 21.9465 148.655 21.8549 148.943 21.7986C149.239 21.7352 149.514 21.7034 149.767 21.7034H154.723C155.195 21.7034 155.617 21.7633 155.991 21.8831C156.365 22.0029 156.692 22.1613 156.973 22.3586C157.263 22.5558 157.505 22.7847 157.703 23.0454C157.907 23.306 158.072 23.5807 158.199 23.8695C158.326 24.1513 158.418 24.4366 158.473 24.7254C158.537 25.0142 158.569 25.2889 158.569 25.5496V29.2688ZM173.402 24.4507H168.604V33.1254H165.825V24.4507H162.254V21.7034H165.825V17.9736H168.604V21.7034H173.402V24.4507ZM189.756 29.2688C189.756 29.7407 189.696 30.167 189.576 30.5473C189.456 30.9206 189.298 31.2517 189.1 31.5405C188.904 31.8223 188.675 32.0653 188.414 32.2696C188.154 32.4668 187.879 32.6288 187.59 32.7556C187.308 32.8824 187.019 32.9775 186.724 33.0408C186.434 33.0973 186.16 33.1254 185.899 33.1254H180.944C180.564 33.1254 180.148 33.0585 179.697 32.9246C179.246 32.7908 178.827 32.5724 178.439 32.2696C178.059 31.9596 177.739 31.5616 177.478 31.0756C177.225 30.5825 177.098 29.9802 177.098 29.2688V25.5496C177.098 24.8451 177.225 24.2499 177.478 23.7639C177.739 23.2708 178.059 22.8728 178.439 22.5699C178.827 22.2599 179.246 22.038 179.697 21.9042C180.148 21.7703 180.564 21.7034 180.944 21.7034H185.899C186.604 21.7034 187.202 21.8303 187.696 22.0838C188.189 22.3375 188.586 22.6579 188.889 23.0454C189.192 23.4258 189.41 23.8413 189.545 24.2921C189.685 24.743 189.756 25.1621 189.756 25.5496V29.2688ZM187.009 25.5707C187.009 25.1903 186.914 24.9085 186.724 24.7254C186.533 24.5423 186.258 24.4507 185.899 24.4507H180.965C180.599 24.4507 180.32 24.5458 180.13 24.7359C179.94 24.9191 179.845 25.1903 179.845 25.5496V29.2688C179.845 29.628 179.94 29.9028 180.13 30.0929C180.32 30.2832 180.599 30.3782 180.965 30.3782H185.899C186.273 30.3782 186.55 30.2832 186.734 30.0929C186.917 29.9028 187.009 29.628 187.009 29.2688V25.5707ZM204.26 24.4507H198.08C197.706 24.4507 197.424 24.5458 197.234 24.7359C197.045 24.9191 196.949 25.1903 196.949 25.5496V33.1254H194.202V25.5496C194.202 25.0776 194.262 24.655 194.381 24.2816C194.501 23.9082 194.66 23.5807 194.857 23.299C195.061 23.0101 195.294 22.7671 195.554 22.5699C195.815 22.3656 196.086 22.2001 196.368 22.0733C196.657 21.9465 196.945 21.8549 197.234 21.7986C197.531 21.7352 197.805 21.7034 198.059 21.7034H204.26V24.4507ZM219.284 29.2688C219.284 29.7407 219.224 30.167 219.104 30.5473C218.984 30.9206 218.826 31.2517 218.629 31.5405C218.432 31.8223 218.203 32.0653 217.942 32.2696C217.681 32.4668 217.406 32.6288 217.118 32.7556C216.836 32.8824 216.547 32.9775 216.251 33.0408C215.963 33.0973 215.688 33.1254 215.427 33.1254H207.989V30.3782H215.406C215.779 30.3782 216.061 30.2832 216.251 30.0929C216.442 29.9028 216.536 29.628 216.536 29.2688C216.501 28.5362 216.131 28.1699 215.427 28.1699H211.169C210.563 28.1699 210.049 28.0642 209.626 27.8529C209.203 27.6416 208.859 27.3775 208.591 27.0604C208.33 26.7435 208.14 26.4019 208.02 26.0356C207.908 25.6693 207.851 25.3277 207.851 25.0107C207.851 24.3978 207.961 23.8836 208.179 23.468C208.397 23.0454 208.672 22.7037 209.003 22.4431C209.334 22.1825 209.693 21.9958 210.081 21.8831C210.468 21.7633 210.831 21.7034 211.169 21.7034H217.92V24.4507H211.19C211.049 24.4507 210.936 24.4682 210.852 24.5035C210.775 24.5317 210.714 24.5739 210.672 24.6303C210.637 24.6796 210.616 24.7359 210.609 24.7993C210.602 24.8557 210.598 24.912 210.598 24.9684C210.605 25.0811 210.627 25.1692 210.662 25.2326C210.697 25.2959 210.74 25.3417 210.788 25.3699C210.845 25.3981 210.905 25.4157 210.969 25.4227C211.039 25.4227 211.106 25.4227 211.169 25.4227H215.427C216.131 25.4227 216.73 25.5496 217.223 25.8031C217.717 26.0567 218.114 26.3772 218.417 26.7646C218.72 27.145 218.938 27.5606 219.073 28.0114C219.213 28.4622 219.284 28.8814 219.284 29.2688Z" fill="white"/>
<path d="M54.7871 50.2566L57.8599 42.7478H58.5956L61.6576 50.2566H60.554L58.033 43.9055H58.4117L55.8691 50.2566H54.7871ZM56.2478 48.558V47.6707H60.1969V48.558H56.2478ZM63.7814 50.2566V42.5314H64.7552V50.2566H63.7814ZM67.2619 50.2566V42.5314H68.2357V50.2566H67.2619ZM76.1631 50.2566L73.707 42.7478H74.7241L76.6716 48.8717H76.3795L78.2946 42.7478H79.0303L80.9454 48.8717H80.6641L82.6116 42.7478H83.6178L81.1726 50.2566H80.4477L78.5218 44.1435H78.8031L76.888 50.2566H76.1631ZM87.1689 50.3648C86.7 50.3648 86.2744 50.2494 85.8921 50.0186C85.5098 49.7806 85.2069 49.4596 84.9833 49.0557C84.7669 48.6517 84.6587 48.1973 84.6587 47.6924C84.6587 47.1875 84.7669 46.733 84.9833 46.3291C85.2069 45.9252 85.5062 45.6042 85.8813 45.3662C86.2636 45.1281 86.6928 45.0091 87.1689 45.0091C87.5584 45.0091 87.9046 45.0921 88.2075 45.258C88.5177 45.4166 88.7666 45.6403 88.9541 45.9288C89.1416 46.2101 89.2462 46.5383 89.2679 46.9134V48.4606C89.2462 48.8284 89.1416 49.1566 88.9541 49.4452C88.7738 49.7337 88.5285 49.9609 88.2184 50.1268C87.9154 50.2855 87.5656 50.3648 87.1689 50.3648ZM87.3312 49.4452C87.8144 49.4452 88.2039 49.2829 88.4997 48.9583C88.7954 48.6265 88.9433 48.2045 88.9433 47.6924C88.9433 47.3389 88.8748 47.0324 88.7377 46.7727C88.6079 46.5058 88.4203 46.3003 88.1751 46.156C87.9298 46.0045 87.6449 45.9288 87.3203 45.9288C86.9957 45.9288 86.7072 46.0045 86.4548 46.156C86.2095 46.3075 86.0148 46.5166 85.8705 46.7835C85.7334 47.0432 85.6649 47.3425 85.6649 47.6816C85.6649 48.0278 85.7334 48.3344 85.8705 48.6012C86.0148 48.8609 86.2131 49.0665 86.4656 49.218C86.718 49.3694 87.0066 49.4452 87.3312 49.4452ZM88.8784 50.2566V48.8717L89.0623 47.6166L88.8784 46.3724V45.1173H89.863V50.2566H88.8784ZM94.0502 50.2999L91.8213 45.1173H92.9033L94.5587 49.1747H94.2125L95.9544 45.1173H97.0364L94.6344 50.2999H94.0502ZM92.5787 52.4098L94.0934 49.3045L94.6344 50.2999L93.6607 52.4098H92.5787ZM100.445 50.3648C100.157 50.3648 99.8829 50.3288 99.6232 50.2566C99.3707 50.1773 99.1363 50.0691 98.9199 49.9321C98.7035 49.7878 98.516 49.6183 98.3573 49.4235L98.9848 48.796C99.1724 49.0268 99.3888 49.1999 99.634 49.3153C99.8793 49.4235 100.153 49.4776 100.456 49.4776C100.759 49.4776 100.994 49.4271 101.16 49.3262C101.325 49.218 101.408 49.0701 101.408 48.8825C101.408 48.695 101.34 48.5507 101.203 48.4498C101.073 48.3416 100.904 48.255 100.694 48.1901C100.485 48.118 100.262 48.0494 100.024 47.9845C99.7927 47.9124 99.5727 47.8222 99.3635 47.714C99.1544 47.6058 98.9812 47.458 98.8442 47.2704C98.7143 47.0829 98.6494 46.834 98.6494 46.5239C98.6494 46.2137 98.7252 45.9468 98.8766 45.7232C99.0281 45.4924 99.2373 45.3157 99.5042 45.193C99.7783 45.0704 100.106 45.0091 100.489 45.0091C100.893 45.0091 101.25 45.0812 101.56 45.2255C101.877 45.3625 102.137 45.5717 102.339 45.853L101.711 46.4806C101.567 46.293 101.387 46.1488 101.17 46.0478C100.961 45.9468 100.723 45.8963 100.456 45.8963C100.175 45.8963 99.9586 45.9468 99.8071 46.0478C99.6629 46.1416 99.5907 46.275 99.5907 46.4481C99.5907 46.6212 99.6557 46.7547 99.7855 46.8484C99.9153 46.9422 100.085 47.0216 100.294 47.0865C100.51 47.1514 100.734 47.2199 100.965 47.2921C101.196 47.357 101.416 47.4471 101.625 47.5625C101.834 47.678 102.004 47.833 102.133 48.0278C102.27 48.2225 102.339 48.4786 102.339 48.796C102.339 49.2793 102.166 49.6616 101.82 49.9429C101.481 50.2242 101.023 50.3648 100.445 50.3648ZM110.191 50.3648C109.686 50.3648 109.232 50.2458 108.828 50.0078C108.424 49.7698 108.103 49.4488 107.865 49.0448C107.627 48.6337 107.508 48.1757 107.508 47.6707C107.508 47.173 107.627 46.7258 107.865 46.3291C108.103 45.9252 108.424 45.6042 108.828 45.3662C109.232 45.1281 109.686 45.0091 110.191 45.0091C110.689 45.0091 111.14 45.1281 111.544 45.3662C111.955 45.597 112.28 45.9144 112.518 46.3183C112.756 46.7222 112.875 47.173 112.875 47.6707C112.875 48.1757 112.756 48.6337 112.518 49.0448C112.28 49.4488 111.955 49.7698 111.544 50.0078C111.14 50.2458 110.689 50.3648 110.191 50.3648ZM110.191 49.4235C110.516 49.4235 110.804 49.3478 111.057 49.1963C111.309 49.0448 111.508 48.8393 111.652 48.5796C111.796 48.3127 111.868 48.0098 111.868 47.6707C111.868 47.3389 111.793 47.0432 111.641 46.7835C111.497 46.5239 111.299 46.3219 111.046 46.1776C110.801 46.0262 110.516 45.9504 110.191 45.9504C109.867 45.9504 109.578 46.0262 109.326 46.1776C109.073 46.3219 108.875 46.5239 108.731 46.7835C108.586 47.0432 108.514 47.3389 108.514 47.6707C108.514 48.0098 108.586 48.3127 108.731 48.5796C108.875 48.8393 109.073 49.0448 109.326 49.1963C109.578 49.3478 109.867 49.4235 110.191 49.4235ZM115.631 50.2566V44.3491C115.631 43.9668 115.714 43.635 115.88 43.3537C116.046 43.0652 116.273 42.838 116.561 42.6721C116.857 42.5062 117.2 42.4232 117.589 42.4232C117.885 42.4232 118.141 42.4737 118.357 42.5747C118.574 42.6757 118.772 42.8235 118.953 43.0183L118.314 43.6458C118.22 43.5448 118.116 43.4691 118 43.4186C117.885 43.3609 117.744 43.3321 117.578 43.3321C117.268 43.3321 117.027 43.4222 116.854 43.6025C116.688 43.7829 116.605 44.0317 116.605 44.3491V50.2566H115.631ZM114.365 46.0045V45.1173H118.238V46.0045H114.365ZM127.234 50.3648C126.7 50.3648 126.203 50.2675 125.741 50.0727C125.279 49.8707 124.875 49.593 124.529 49.2396C124.183 48.8789 123.912 48.4642 123.718 47.9953C123.523 47.5265 123.426 47.0252 123.426 46.4914C123.426 45.9504 123.523 45.4491 123.718 44.9875C123.912 44.5186 124.179 44.1075 124.518 43.754C124.865 43.4006 125.265 43.1265 125.719 42.9317C126.181 42.737 126.679 42.6396 127.212 42.6396C127.746 42.6396 128.24 42.737 128.695 42.9317C129.156 43.1265 129.56 43.4006 129.907 43.754C130.253 44.1075 130.52 44.5186 130.707 44.9875C130.902 45.4563 130.999 45.9612 130.999 46.5022C130.999 47.036 130.902 47.5373 130.707 48.0062C130.52 48.475 130.253 48.8862 129.907 49.2396C129.568 49.593 129.167 49.8707 128.706 50.0727C128.251 50.2675 127.761 50.3648 127.234 50.3648ZM127.212 49.3911C127.746 49.3911 128.219 49.2684 128.63 49.0232C129.041 48.7707 129.362 48.4281 129.593 47.9953C129.831 47.5553 129.95 47.054 129.95 46.4914C129.95 46.073 129.881 45.6907 129.744 45.3445C129.614 44.9911 129.427 44.6845 129.182 44.4248C128.936 44.1652 128.648 43.9668 128.316 43.8298C127.984 43.6855 127.616 43.6134 127.212 43.6134C126.679 43.6134 126.206 43.736 125.795 43.9812C125.384 44.2265 125.059 44.5655 124.821 44.9983C124.59 45.4311 124.475 45.9288 124.475 46.4914C124.475 46.9098 124.544 47.2993 124.681 47.6599C124.818 48.0134 125.005 48.3199 125.243 48.5796C125.489 48.8321 125.777 49.0304 126.109 49.1747C126.448 49.3189 126.816 49.3911 127.212 49.3911ZM130.826 50.7868L127.31 47.2704L127.97 46.6104L131.475 50.1268L130.826 50.7868ZM135.624 50.3648C135.205 50.3648 134.827 50.2711 134.488 50.0835C134.156 49.8888 133.896 49.6219 133.709 49.2829C133.521 48.9439 133.427 48.5507 133.427 48.1035V45.1173H134.401V48.0603C134.401 48.3416 134.448 48.5868 134.542 48.796C134.643 48.998 134.787 49.153 134.975 49.2612C135.162 49.3694 135.382 49.4235 135.635 49.4235C136.017 49.4235 136.316 49.3045 136.533 49.0665C136.749 48.8212 136.857 48.4858 136.857 48.0603V45.1173H137.831V48.1035C137.831 48.5507 137.737 48.9439 137.55 49.2829C137.362 49.6219 137.103 49.8888 136.771 50.0835C136.446 50.2711 136.064 50.3648 135.624 50.3648ZM142.404 50.3648C141.935 50.3648 141.51 50.2494 141.127 50.0186C140.745 49.7806 140.442 49.4596 140.219 49.0557C140.002 48.6517 139.894 48.1973 139.894 47.6924C139.894 47.1875 140.002 46.733 140.219 46.3291C140.442 45.9252 140.742 45.6042 141.117 45.3662C141.499 45.1281 141.928 45.0091 142.404 45.0091C142.794 45.0091 143.14 45.0921 143.443 45.258C143.753 45.4166 144.002 45.6403 144.189 45.9288C144.377 46.2101 144.482 46.5383 144.503 46.9134V48.4606C144.482 48.8284 144.377 49.1566 144.189 49.4452C144.009 49.7337 143.764 49.9609 143.454 50.1268C143.151 50.2855 142.801 50.3648 142.404 50.3648ZM142.566 49.4452C143.05 49.4452 143.439 49.2829 143.735 48.9583C144.031 48.6265 144.179 48.2045 144.179 47.6924C144.179 47.3389 144.11 47.0324 143.973 46.7727C143.843 46.5058 143.656 46.3003 143.41 46.156C143.165 46.0045 142.88 45.9288 142.556 45.9288C142.231 45.9288 141.943 46.0045 141.69 46.156C141.445 46.3075 141.25 46.5166 141.106 46.7835C140.969 47.0432 140.9 47.3425 140.9 47.6816C140.9 48.0278 140.969 48.3344 141.106 48.6012C141.25 48.8609 141.448 49.0665 141.701 49.218C141.953 49.3694 142.242 49.4452 142.566 49.4452ZM144.114 50.2566V48.8717L144.298 47.6166L144.114 46.3724V45.1173H145.098V50.2566H144.114ZM147.598 50.2566V42.5314H148.571V50.2566H147.598ZM151.089 50.2566V45.1173H152.063V50.2566H151.089ZM151.576 44.0894C151.395 44.0894 151.247 44.0317 151.132 43.9163C151.017 43.7937 150.959 43.6422 150.959 43.4619C150.959 43.2888 151.017 43.1445 151.132 43.0291C151.247 42.9065 151.395 42.8452 151.576 42.8452C151.756 42.8452 151.904 42.9065 152.019 43.0291C152.135 43.1445 152.192 43.2888 152.192 43.4619C152.192 43.6422 152.135 43.7937 152.019 43.9163C151.904 44.0317 151.756 44.0894 151.576 44.0894ZM155.37 50.2566V42.9642H156.344V50.2566H155.37ZM154.104 46.0045V45.1173H157.609V46.0045H154.104ZM161.333 50.2999L159.104 45.1173H160.186L161.842 49.1747H161.495L163.237 45.1173H164.319L161.917 50.2999H161.333ZM159.862 52.4098L161.376 49.3045L161.917 50.2999L160.944 52.4098H159.862ZM168.932 50.2566L172.005 42.7478H172.741L175.803 50.2566H174.699L172.178 43.9055H172.557L170.014 50.2566H168.932ZM170.393 48.558V47.6707H174.342V48.558H170.393ZM177.926 50.2566V42.5314H178.9V50.2566H177.926ZM182.879 50.2566L180.845 45.1173H181.862L183.333 49.1206H183.009L184.469 45.1173H185.032L186.493 49.1206H186.168L187.639 45.1173H188.656L186.633 50.2566H186.06L184.577 46.3724H184.935L183.441 50.2566H182.879ZM192.642 50.3648C192.173 50.3648 191.747 50.2494 191.365 50.0186C190.983 49.7806 190.68 49.4596 190.456 49.0557C190.24 48.6517 190.132 48.1973 190.132 47.6924C190.132 47.1875 190.24 46.733 190.456 46.3291C190.68 45.9252 190.979 45.6042 191.354 45.3662C191.736 45.1281 192.166 45.0091 192.642 45.0091C193.031 45.0091 193.377 45.0921 193.68 45.258C193.991 45.4166 194.239 45.6403 194.427 45.9288C194.615 46.2101 194.719 46.5383 194.741 46.9134V48.4606C194.719 48.8284 194.615 49.1566 194.427 49.4452C194.247 49.7337 194.001 49.9609 193.691 50.1268C193.388 50.2855 193.038 50.3648 192.642 50.3648ZM192.804 49.4452C193.287 49.4452 193.677 49.2829 193.973 48.9583C194.268 48.6265 194.416 48.2045 194.416 47.6924C194.416 47.3389 194.348 47.0324 194.211 46.7727C194.081 46.5058 193.893 46.3003 193.648 46.156C193.403 46.0045 193.118 45.9288 192.793 45.9288C192.469 45.9288 192.18 46.0045 191.928 46.156C191.682 46.3075 191.488 46.5166 191.343 46.7835C191.206 47.0432 191.138 47.3425 191.138 47.6816C191.138 48.0278 191.206 48.3344 191.343 48.6012C191.488 48.8609 191.686 49.0665 191.938 49.218C192.191 49.3694 192.479 49.4452 192.804 49.4452ZM194.351 50.2566V48.8717L194.535 47.6166L194.351 46.3724V45.1173H195.336V50.2566H194.351ZM199.523 50.2999L197.294 45.1173H198.376L200.032 49.1747H199.685L201.427 45.1173H202.509L200.107 50.2999H199.523ZM198.052 52.4098L199.566 49.3045L200.107 50.2999L199.134 52.4098H198.052ZM205.918 50.3648C205.63 50.3648 205.356 50.3288 205.096 50.2566C204.844 50.1773 204.609 50.0691 204.393 49.9321C204.176 49.7878 203.989 49.6183 203.83 49.4235L204.458 48.796C204.645 49.0268 204.862 49.1999 205.107 49.3153C205.352 49.4235 205.626 49.4776 205.929 49.4776C206.232 49.4776 206.467 49.4271 206.632 49.3262C206.798 49.218 206.881 49.0701 206.881 48.8825C206.881 48.695 206.813 48.5507 206.676 48.4498C206.546 48.3416 206.376 48.255 206.167 48.1901C205.958 48.118 205.734 48.0494 205.496 47.9845C205.266 47.9124 205.046 47.8222 204.836 47.714C204.627 47.6058 204.454 47.458 204.317 47.2704C204.187 47.0829 204.122 46.834 204.122 46.5239C204.122 46.2137 204.198 45.9468 204.35 45.7232C204.501 45.4924 204.71 45.3157 204.977 45.193C205.251 45.0704 205.579 45.0091 205.962 45.0091C206.366 45.0091 206.723 45.0812 207.033 45.2255C207.35 45.3625 207.61 45.5717 207.812 45.853L207.184 46.4806C207.04 46.293 206.86 46.1488 206.643 46.0478C206.434 45.9468 206.196 45.8963 205.929 45.8963C205.648 45.8963 205.431 45.9468 205.28 46.0478C205.136 46.1416 205.064 46.275 205.064 46.4481C205.064 46.6212 205.129 46.7547 205.258 46.8484C205.388 46.9422 205.558 47.0216 205.767 47.0865C205.983 47.1514 206.207 47.2199 206.438 47.2921C206.669 47.357 206.889 47.4471 207.098 47.5625C207.307 47.678 207.476 47.833 207.606 48.0278C207.743 48.2225 207.812 48.4786 207.812 48.796C207.812 49.2793 207.639 49.6616 207.292 49.9429C206.953 50.2242 206.495 50.3648 205.918 50.3648Z" fill="white"/>
<path d="M1.07004 2.46973C1.07004 2.46973 10.4918 17.8142 33.8455 28.5842C33.8455 28.5842 30.836 31.9388 30.7397 41.8581C30.7397 41.8581 38.3558 45.2689 39.9609 45.2689V47.0666C39.9609 47.0666 42.5691 49.7712 42.2641 51.3762C42.2641 51.3762 39.6559 48.9686 37.9546 48.768L40.659 51.3762C40.659 51.3762 37.7539 50.7743 35.6512 49.7712L32.1441 49.0729C32.1441 49.0729 34.5518 55.1882 35.9562 56.2878C35.9562 56.2878 28.8377 53.0776 26.3338 32.1314C26.3258 32.1314 -2.63767 26.0242 1.07004 2.46973Z" fill="url(#paint0_linear_394_64)"/>
<path d="M2.07227 20.6069C2.07227 20.6069 9.88891 28.4236 25.723 34.3384C25.723 34.3384 25.121 41.0556 29.4307 51.3762C29.4307 51.3762 24.471 47.3634 22.0152 38.6479C22.0152 38.6479 8.28388 37.8454 2.07227 20.6069Z" fill="url(#paint1_linear_394_64)"/>
<path d="M8.68555 35.0445C8.68555 35.0445 9.98564 43.0619 19.8086 43.4631L24.4152 48.3746L20.3063 39.7554C20.3143 39.7554 16.8072 39.8517 8.68555 35.0445Z" fill="url(#paint2_linear_394_64)"/>
</g>
</g>
</g>
<defs>
<linearGradient id="paint0_linear_394_64" x1="40.5945" y1="29.3787" x2="0.682093" y2="29.3787" gradientUnits="userSpaceOnUse">
<stop stop-color="#4592E9"/>
<stop offset="1" stop-color="#7857E3"/>
</linearGradient>
<linearGradient id="paint1_linear_394_64" x1="28.3149" y1="35.9915" x2="2.03269" y2="35.9915" gradientUnits="userSpaceOnUse">
<stop stop-color="#4592E9"/>
<stop offset="1" stop-color="#7857E3"/>
</linearGradient>
<linearGradient id="paint2_linear_394_64" x1="23.7737" y1="41.7096" x2="8.66279" y2="41.7096" gradientUnits="userSpaceOnUse">
<stop stop-color="#4592E9"/>
<stop offset="1" stop-color="#7857E3"/>
</linearGradient>
<clipPath id="clip0_394_64">
<rect width="220" height="55" fill="white" transform="translate(0 2)"/>
</clipPath>
<clipPath id="clip1_394_64">
<rect width="220" height="55" fill="white" transform="translate(0 2)"/>
</clipPath>
<clipPath id="clip2_394_64">
<rect width="220" height="55" fill="white" transform="translate(0 2)"/>
</clipPath>
</defs>
</svg>
