<svg width="32" height="32" viewBox="0 0 32 32" fill="none" xmlns="http://www.w3.org/2000/svg">
<g clip-path="url(#clip0_13_363)">
<path d="M0.560159 29.9961C0.994411 25.1861 3.88841 21.7681 8.03241 19.9331C8.88081 21.1414 10.0078 22.1276 11.318 22.8081C12.6282 23.4887 14.083 23.8436 15.5594 23.8429H16.4567C17.932 23.8436 19.3858 23.4892 20.6952 22.8096C22.0047 22.13 23.1313 21.1452 23.9799 19.9384C28.1174 21.7741 31.0065 25.1909 31.4401 29.9961C31.458 30.2034 31.4323 30.4118 31.3652 30.6087C31.298 30.8053 31.1908 30.9861 31.0501 31.1392C30.9094 31.2922 30.7384 31.4142 30.5482 31.4978C30.3576 31.5814 30.152 31.6243 29.9442 31.6241H2.05616C1.84827 31.6243 1.6426 31.5814 1.45221 31.4978C1.26182 31.4142 1.09087 31.2922 0.950196 31.1392C0.809532 30.9861 0.702219 30.8053 0.635074 30.6087C0.567929 30.4118 0.542418 30.2034 0.560159 29.9961Z" fill="#8559FD"/>
<path d="M16.2178 24.2149H15.3206C13.7029 24.2135 12.1099 23.8178 10.6795 23.0622C9.24913 22.3066 8.02439 21.2138 7.11133 19.8784C7.33518 19.7659 7.56267 19.6582 7.79385 19.5552C8.6422 20.7634 9.76914 21.7496 11.0793 22.4301C12.3894 23.1107 13.8442 23.4656 15.3206 23.4649H16.2178C17.6932 23.4657 19.147 23.1113 20.4564 22.4317C21.7659 21.7521 22.8925 20.7673 23.7411 19.5604C23.9726 19.6632 24.1996 19.7717 24.4231 19.8854C23.5096 21.219 22.2852 22.3101 20.8556 23.0644C19.426 23.8187 17.8342 24.2136 16.2178 24.2149Z" fill="#1D1D36"/>
<path d="M26.249 9.68701C26.1496 9.68701 26.0542 9.64751 25.9839 9.57717C25.9135 9.50685 25.874 9.41146 25.874 9.312V2.74951C25.874 2.65006 25.9135 2.55467 25.9839 2.48435C26.0542 2.41402 26.1496 2.37451 26.249 2.37451C26.3485 2.37451 26.4439 2.41402 26.5142 2.48435C26.5845 2.55467 26.624 2.65006 26.624 2.74951V9.312C26.624 9.41146 26.5845 9.50685 26.5142 9.57717C26.4439 9.64751 26.3485 9.68701 26.249 9.68701Z" fill="#8559FD"/>
<path d="M5.74903 9.68701C5.64957 9.68701 5.5542 9.64751 5.48386 9.57717C5.41355 9.50685 5.37402 9.41146 5.37402 9.312V2.74951C5.37402 2.65006 5.41355 2.55467 5.48386 2.48435C5.5542 2.41402 5.64957 2.37451 5.74903 2.37451C5.84849 2.37451 5.94388 2.41402 6.0142 2.48435C6.08451 2.55467 6.12403 2.65006 6.12403 2.74951V9.312C6.12403 9.41146 6.08451 9.50685 6.0142 9.57717C5.94388 9.64751 5.84849 9.68701 5.74903 9.68701Z" fill="#8559FD"/>
<path d="M16.0085 2.18701C21.4758 2.18701 25.7173 7.29026 25.6683 12.5938L25.6616 14.6688C25.6537 17.1048 24.6806 19.4384 22.9553 21.1582C21.23 22.878 18.8934 23.8437 16.4573 23.8438H15.5601C13.124 23.8438 10.7873 22.8781 9.06198 21.1583C7.33669 19.4384 6.36354 17.1048 6.35582 14.6688L6.34904 12.5938C6.30081 7.29026 10.5405 2.18701 16.0085 2.18701Z" fill="#8559FD"/>
<path d="M9.56405 21.6206C11.2306 23.057 13.3582 23.8459 15.5583 23.8434H16.4556C18.6524 23.8459 20.777 23.0593 22.4425 21.6269C23.9639 22.6712 25.2081 24.0704 26.0673 25.7034C26.9266 27.3365 27.375 29.1543 27.374 30.9996C27.374 31.2095 27.3676 31.4177 27.3563 31.6246H4.64178C4.63054 31.4177 4.62403 31.2095 4.62403 30.9996C4.62299 29.1526 5.07234 27.333 5.93314 25.6986C6.79394 24.0644 8.04021 22.6646 9.56405 21.6206Z" fill="#8559FD"/>
<path d="M16.4566 24.5929H15.5593C13.1228 24.5938 10.7714 23.6971 8.9541 22.0741C9.15409 21.9169 9.35583 21.7646 9.5651 21.6206C11.2316 23.057 13.3592 23.8459 15.5593 23.8434H16.4566C18.6534 23.8459 20.778 23.0593 22.4436 21.6269C22.6528 21.7709 22.8553 21.9234 23.0541 22.0806C21.2379 23.6995 18.8896 24.5937 16.4566 24.5929Z" fill="#1D1D36"/>
<path d="M4.42532 12.0695C4.47531 10.5847 4.50982 9.55999 5.29655 8.77599C5.87869 8.2394 6.63473 7.93061 7.42605 7.90625C6.71643 9.36663 6.34979 10.9698 6.35405 12.5935L6.3608 14.6685C6.36308 15.1773 6.40713 15.685 6.49255 16.1865C5.94719 16.0651 5.45007 15.7847 5.06405 15.3807C4.34154 14.5937 4.3753 13.5912 4.42532 12.0695Z" fill="#8559FD"/>
<path d="M25.67 14.6685L25.6767 12.5935C25.681 10.9698 25.3143 9.36657 24.6045 7.90625C25.3956 7.93009 26.1517 8.23816 26.7342 8.774C27.521 9.558 27.5555 10.5827 27.6052 12.0675C27.6552 13.5892 27.6902 14.5925 26.9667 15.3795C26.5807 15.7835 26.0834 16.0639 25.538 16.1853C25.6235 15.6842 25.6677 15.1769 25.67 14.6685Z" fill="#8559FD"/>
<path d="M16.0099 21.8748C11.4202 21.8748 8.15419 18.5216 8.63718 13.9998C8.72266 13.1722 9.11127 12.4055 9.72818 11.8473C10.3451 11.289 11.1467 10.9787 11.9787 10.9761C13.9942 10.9816 13.9942 12.1011 16.0099 12.1011C18.0257 12.1011 18.0254 10.9816 20.0412 10.9761C20.8732 10.9788 21.6747 11.2891 22.2916 11.8473C22.9085 12.4056 23.2972 13.1723 23.3827 13.9998C23.8657 18.5216 20.5987 21.8748 16.0099 21.8748Z" fill="#1D1D36"/>
<path d="M14.238 16.6605C14.4103 16.4949 14.6404 16.403 14.8794 16.4043C15.1183 16.4055 15.3474 16.4998 15.518 16.6672C15.5787 16.7384 15.6531 16.7966 15.737 16.8381C15.8207 16.8797 15.9121 16.9038 16.0055 16.909C16.0983 16.903 16.189 16.8787 16.2724 16.8376C16.3558 16.7964 16.4301 16.7391 16.4913 16.669C16.66 16.4978 16.8898 16.4007 17.1302 16.3989C17.3705 16.3972 17.6017 16.4911 17.7729 16.6598C17.944 16.8286 18.0412 17.0584 18.0429 17.2988C18.0446 17.5391 17.9507 17.7703 17.782 17.9415C17.5555 18.1866 17.2808 18.3821 16.9751 18.5159C16.6693 18.6497 16.3392 18.7187 16.0055 18.7187C15.6718 18.7187 15.3417 18.6497 15.036 18.5159C14.7302 18.3821 14.4555 18.1866 14.229 17.9415C14.0618 17.7696 13.9691 17.5388 13.9707 17.2991C13.9724 17.0594 14.0684 16.8299 14.238 16.6605Z" fill="#8559FD"/>
<path d="M11.6672 14.0015C11.6647 13.8803 11.6862 13.7597 11.7305 13.6469C11.7747 13.534 11.8409 13.431 11.9251 13.3437C12.0093 13.2565 12.11 13.1868 12.2212 13.1386C12.3325 13.0904 12.4522 13.0647 12.5734 13.063C12.8135 13.0638 13.0435 13.1596 13.2133 13.3294C13.3831 13.4991 13.4788 13.7291 13.4797 13.9692V15.2192C13.4789 15.4593 13.3832 15.6894 13.2134 15.8592C13.0436 16.029 12.8135 16.1247 12.5734 16.1255C12.4522 16.1237 12.3325 16.0981 12.2213 16.0499C12.11 16.0018 12.0094 15.9321 11.9251 15.8449C11.8409 15.7577 11.7747 15.6547 11.7305 15.5418C11.6862 15.4289 11.6647 15.3084 11.6672 15.1872C11.6682 14.8907 11.6682 14.2987 11.6672 14.0015Z" fill="#8559FD"/>
<path d="M19.449 13.063C19.5703 13.0643 19.6902 13.0898 19.8017 13.1378C19.9131 13.1859 20.014 13.2555 20.0983 13.3428C20.1826 13.4302 20.2488 13.5333 20.2929 13.6464C20.337 13.7594 20.3583 13.8801 20.3555 14.0015C20.3555 14.0015 20.3555 14.8907 20.3555 15.1872C20.3579 15.3085 20.3364 15.429 20.2922 15.5419C20.2479 15.6548 20.1817 15.7578 20.0974 15.845C20.0132 15.9322 19.9125 16.0019 19.8012 16.05C19.6899 16.0981 19.5702 16.1238 19.449 16.1255C19.2089 16.1247 18.9789 16.029 18.8091 15.8592C18.6394 15.6894 18.5437 15.4593 18.543 15.2192V13.9692C18.5432 13.729 18.6388 13.4987 18.8086 13.3288C18.9785 13.1589 19.2087 13.0633 19.449 13.063Z" fill="#8559FD"/>
<path d="M26.25 3.3745C25.4216 3.3745 24.75 2.70294 24.75 1.87451C24.75 1.04608 25.4216 0.374512 26.25 0.374512C27.0784 0.374512 27.75 1.04608 27.75 1.87451C27.75 2.70294 27.0784 3.3745 26.25 3.3745Z" fill="#8559FD"/>
<path d="M5.74999 3.3745C4.92157 3.3745 4.25 2.70294 4.25 1.87451C4.25 1.04608 4.92157 0.374512 5.74999 0.374512C6.57842 0.374512 7.24999 1.04608 7.24999 1.87451C7.24999 2.70294 6.57842 3.3745 5.74999 3.3745Z" fill="#8559FD"/>
<path d="M16.0097 2.18701C18.6422 2.18701 20.9885 3.37176 22.7097 5.19025C22.0796 6.34917 21.294 7.41653 20.3749 8.36275C20.1657 8.57502 19.9162 8.74344 19.6411 8.85823C19.366 8.973 19.0708 9.03181 18.7727 9.03126H13.252C12.9542 9.03158 12.6594 8.97263 12.3848 8.85786C12.11 8.74309 11.8609 8.57479 11.652 8.36275C10.7316 7.41529 9.94511 6.34641 9.31445 5.18576C11.035 3.36977 13.3794 2.18701 16.0097 2.18701Z" fill="#8559FD"/>
<path d="M16.0127 7.15625C15.3914 7.15625 14.8877 6.65258 14.8877 6.03127C14.8877 5.40995 15.3914 4.90625 16.0127 4.90625C16.634 4.90625 17.1377 5.40995 17.1377 6.03127C17.1377 6.65258 16.634 7.15625 16.0127 7.15625Z" fill="#1D1D36"/>
<path d="M9.47852 31.6246L9.81377 29.3391C9.90835 28.6178 10.2636 27.9564 10.8126 27.4793C11.3615 27.0023 12.0661 26.7428 12.7933 26.7496H19.2078C19.935 26.7428 20.6395 27.0023 21.1885 27.4793C21.7374 27.9564 22.0927 28.6178 22.1873 29.3391L22.5225 31.6246H9.47852Z" fill="#1D1D36"/>
<path d="M16 29.9995C15.5858 29.9995 15.25 29.6636 15.25 29.2494C15.25 28.8354 15.5858 28.4995 16 28.4995C16.4142 28.4995 16.75 28.8354 16.75 29.2494C16.75 29.6636 16.4142 29.9995 16 29.9995Z" fill="#8559FD"/>
<path d="M5.27166 27.2275C5.86196 27.4222 6.42002 27.7036 6.92764 28.0623C7.66315 28.5373 8.35816 28.9853 9.7469 28.9997L10.1219 29.0037L10.1142 29.7539L9.73915 29.7498C8.13341 29.7334 7.31415 29.2041 6.5209 28.6923C6.06926 28.3703 5.57211 28.1175 5.0459 27.9423C5.11339 27.7006 5.18866 27.4624 5.27166 27.2275Z" fill="#1D1D36"/>
<path d="M25.4822 28.6913C24.6889 29.2035 23.8689 29.7334 22.2607 29.7498L21.8857 29.7539L21.8779 29.0037L22.2529 28.9997C23.6442 28.9853 24.3394 28.5365 25.0754 28.0613C25.5821 27.7031 26.1391 27.4222 26.7282 27.2275C26.8115 27.4629 26.8865 27.7012 26.9532 27.9425C26.4284 28.1178 25.9327 28.3702 25.4822 28.6913Z" fill="#1D1D36"/>
</g>
<defs>
<clipPath id="clip0_13_363">
<rect width="32" height="32" fill="white" transform="translate(0 -0.000488281)"/>
</clipPath>
</defs>
</svg>
