<svg width="74" height="74" viewBox="0 0 74 74" fill="none" xmlns="http://www.w3.org/2000/svg">
<path d="M12.1738 2.24261V10.7521H61.8234V2.24261C61.8234 1.00406 60.8382 0 59.599 0H14.3983C13.1591 0 12.1738 1.00406 12.1738 2.24261Z" fill="#8559FD"/>
<path d="M70.5204 52.1794H59.8983C59.025 52.1794 58.3452 52.9243 58.3452 53.7976V57.379L52.4948 57.3543V40.3204H60.2621C61.1354 40.3204 61.8238 39.6555 61.8238 38.7822V14.5469H12.1743V38.7822C12.1743 39.6555 12.8627 40.3204 13.736 40.3204H21.5033V57.2393L15.6529 57.291V53.7976C15.6529 52.9243 14.9731 52.1794 14.0998 52.1794H3.47768C2.60439 52.1794 1.89648 52.9243 1.89648 53.7976V64.4101C1.89648 65.2834 2.60439 65.9358 3.47768 65.9358H14.0998C14.9731 65.9358 15.6529 65.2834 15.6529 64.4101V61.4295L23.5143 61.3503H23.5352C24.6504 61.3503 25.6146 60.487 25.6146 59.3427V40.3204H34.9437V60.2435H31.6881C30.8148 60.2435 30.0419 60.9329 30.0419 61.8062V72.4187C30.0419 73.292 30.8148 73.9999 31.6881 73.9999H42.3103C43.1836 73.9999 43.9565 73.292 43.9565 72.4187V61.8062C43.9565 60.9329 43.1836 60.2435 42.3103 60.2435H39.0546V40.3204H48.3837V59.4227C48.3837 60.5674 49.32 61.4973 50.4655 61.5049L58.3452 61.5421V64.4099C58.3452 65.2832 59.025 65.9356 59.8983 65.9356H70.5204C71.3937 65.9356 72.1016 65.2832 72.1016 64.4099V53.7974C72.1016 52.9243 71.3937 52.1794 70.5204 52.1794ZM32.0973 26.1487L28.0416 28.1801L32.0973 30.2116V33.2997L23.8751 29.1255V27.2344L32.0973 23.061V26.1487ZM36.2518 33.3631H33.2986L37.7588 21.8204H40.7278L36.2518 33.3631ZM41.9008 30.2096L45.9836 28.1801L41.9008 26.1506V23.0638L50.123 27.22V29.1404L41.9008 33.2965V30.2096Z" fill="#8559FD"/>
</svg>
