<svg width="67" height="67" viewBox="0 0 67 67" fill="none" xmlns="http://www.w3.org/2000/svg">
<g clip-path="url(#clip0_13_277)">
<path d="M34.6551 51.9828C34.6551 52.6207 34.1378 53.138 33.4999 53.138C32.862 53.138 32.3447 52.6207 32.3447 51.9828C32.3447 51.3449 32.862 50.8276 33.4999 50.8276C34.1378 50.8276 34.6551 51.3449 34.6551 51.9828Z" fill="#8559FD"/>
<path d="M24.2586 45.0517C24.2586 45.6896 23.7414 46.2068 23.1034 46.2068C22.4655 46.2068 21.9482 45.6896 21.9482 45.0517C21.9482 44.4137 22.4655 43.8965 23.1034 43.8965C23.7414 43.8965 24.2586 44.4137 24.2586 45.0517Z" fill="#8559FD"/>
<path d="M13.8621 51.9828C13.8621 52.6207 13.3449 53.138 12.7069 53.138C12.069 53.138 11.5518 52.6207 11.5518 51.9828C11.5518 51.3449 12.069 50.8276 12.7069 50.8276C13.3449 50.8276 13.8621 51.3449 13.8621 51.9828Z" fill="#8559FD"/>
<path d="M11.5518 36.9653H25.4138V25.4136H11.5518V36.9653ZM13.8621 27.7239H23.1035V30.0343H13.8621V27.7239ZM13.8621 32.3446H23.1035V34.655H13.8621V32.3446Z" fill="#8559FD"/>
<path d="M46.2068 42.7416C46.2068 43.3795 45.6896 43.8968 45.0517 43.8968C44.4137 43.8968 43.8965 43.3795 43.8965 42.7416C43.8965 42.1037 44.4137 41.5864 45.0517 41.5864C45.6896 41.5864 46.2068 42.1037 46.2068 42.7416Z" fill="#8559FD"/>
<path d="M41.5867 27.7243C42.7142 27.7243 43.8045 27.5743 44.8548 27.3187L40.6566 14.7263L28.3958 9.61719C27.9638 10.9557 27.7246 12.381 27.7246 13.8622C27.7246 21.5062 33.9427 27.7243 41.5867 27.7243Z" fill="#8559FD"/>
<path d="M55.448 49.6723C55.448 50.3102 54.9308 50.8274 54.2929 50.8274C53.6549 50.8274 53.1377 50.3102 53.1377 49.6723C53.1377 49.0343 53.6549 48.5171 54.2929 48.5171C54.9308 48.5171 55.448 49.0343 55.448 49.6723Z" fill="#8559FD"/>
<path d="M50.5282 3.28671C48.1112 1.24091 44.9926 0 41.5857 0C36.2408 0 31.6015 3.0453 29.29 7.48775L41.3167 12.4988L50.5282 3.28671Z" fill="#8559FD"/>
<path d="M47.0493 26.5975C51.983 24.4733 55.4486 19.5661 55.4486 13.8619C55.4486 10.455 54.2076 7.33638 52.1618 4.91943L42.9092 14.1727L47.0493 26.5975Z" fill="#8559FD"/>
<path d="M62.3792 20.7931V57.7586H64.6896V19.6379C64.6896 17.7274 63.1345 16.1724 61.224 16.1724H57.5735C57.4607 16.9615 57.3011 17.7342 57.0771 18.4827H60.0689C61.3431 18.4827 62.3792 19.5189 62.3792 20.7931Z" fill="#8559FD"/>
<path d="M6.93066 57.7585H24.7366L25.075 58.0969C26.3469 59.3688 28.0368 60.0688 29.8367 60.0688H37.1637C38.9624 60.0688 40.6535 59.3688 41.9254 58.0969L42.2627 57.7585H60.0686V20.793H56.1755C53.573 26.2479 48.0211 30.0343 41.5858 30.0343C35.1506 30.0343 29.5987 26.2479 26.9961 20.793H6.93066V57.7585ZM34.6548 34.655H57.7582V36.9654H34.6548V34.655ZM30.0341 34.655H32.3445V36.9654H30.0341V34.655ZM9.24101 23.1033H27.7238V39.2757H9.24101V23.1033ZM12.7065 48.5171C13.4838 48.5171 14.1945 48.7828 14.7732 49.2171L19.7543 45.896C19.6849 45.6247 19.6376 45.3449 19.6376 45.0516C19.6376 43.1412 21.1926 41.5861 23.1031 41.5861C25.0135 41.5861 26.5686 43.1412 26.5686 45.0516C26.5686 45.3449 26.5212 45.6247 26.4518 45.896L31.433 49.2171C32.0117 48.7839 32.7224 48.5171 33.4996 48.5171C34.1697 48.5171 34.7902 48.7168 35.3204 49.0473L41.79 43.871C41.6665 43.5151 41.5858 43.1389 41.5858 42.7412C41.5858 40.8308 43.1409 39.2757 45.0514 39.2757C46.9618 39.2757 48.5169 40.8308 48.5169 42.7412C48.5169 43.1005 48.4464 43.4412 48.3448 43.7673L52.375 46.7889C52.9238 46.4228 53.5837 46.2068 54.2927 46.2068C56.2032 46.2068 57.7582 47.7618 57.7582 49.6723C57.7582 51.5827 56.2032 53.1378 54.2927 53.1378C52.3823 53.1378 50.8272 51.5827 50.8272 49.6723C50.8272 49.313 50.8977 48.9723 50.9992 48.6463L46.9691 45.6247C46.4203 45.9907 45.7604 46.2068 45.0514 46.2068C44.3813 46.2068 43.7608 46.0071 43.2306 45.6766L36.761 50.8528C36.8845 51.2088 36.9651 51.585 36.9651 51.9826C36.9651 53.8931 35.4101 55.4481 33.4996 55.4481C31.5892 55.4481 30.0341 53.8931 30.0341 51.9826C30.0341 51.6904 30.0815 51.4096 30.1509 51.1382L25.1698 47.8171C24.591 48.2514 23.8803 48.5171 23.1031 48.5171C22.3258 48.5171 21.6151 48.2514 21.0364 47.8171L16.0553 51.1382C16.1247 51.4096 16.172 51.6893 16.172 51.9826C16.172 53.8931 14.617 55.4481 12.7065 55.4481C10.7961 55.4481 9.24101 53.8931 9.24101 51.9826C9.24101 50.0722 10.7961 48.5171 12.7065 48.5171Z" fill="#8559FD"/>
<path d="M43.2011 60.0688C41.54 61.5624 39.4146 62.3792 37.1629 62.3792H29.8359C27.5843 62.3792 25.4589 61.5624 23.7978 60.0688H0V63.5344C0 65.4448 1.55508 66.9999 3.46552 66.9999H63.5345C65.4449 66.9999 67 65.4448 67 63.5344V60.0688H43.2011ZM6.93103 64.6895H4.62069V62.3792H6.93103V64.6895ZM11.5517 64.6895H9.24138V62.3792H11.5517V64.6895ZM16.1724 64.6895H13.8621V62.3792H16.1724V64.6895ZM62.3793 64.6895H53.1379V62.3792H62.3793V64.6895Z" fill="#8559FD"/>
<path d="M4.62089 20.7931C4.62089 19.5189 5.65705 18.4827 6.93124 18.4827H26.0954C25.8726 17.7342 25.7118 16.9615 25.599 16.1724H5.77606C3.86563 16.1724 2.31055 17.7274 2.31055 19.6379V57.7586H4.62089V20.7931Z" fill="#8559FD"/>
</g>
<defs>
<clipPath id="clip0_13_277">
<rect width="67" height="67" fill="white"/>
</clipPath>
</defs>
</svg>
