<svg width="32" height="32" viewBox="0 0 32 32" fill="none" xmlns="http://www.w3.org/2000/svg">
<g clip-path="url(#clip0_13_388)">
<path d="M27.1181 15.8024H31.0625C31.58 15.8024 32 15.383 32 14.8649C32 14.3474 31.58 13.9274 31.0625 13.9274H27.4906C27.94 11.0949 27.7313 9.17924 27.7194 9.07611C27.6769 8.70549 27.4187 8.39549 27.0625 8.28674C25.6381 7.85049 24.3969 7.40799 23.3169 6.97424V4.65674H26.5362C26.9231 5.74799 27.9656 6.53174 29.1875 6.53174C30.7381 6.53174 32 5.26986 32 3.71924C32 2.16799 30.7381 0.906738 29.1875 0.906738C27.9656 0.906738 26.9231 1.69049 26.5362 2.78174H22.3794C21.8613 2.78174 21.4419 3.20111 21.4419 3.71924V6.15861C17.9669 4.51799 16.815 3.17236 16.7456 3.08861C16.3711 2.5733 15.6293 2.57286 15.2544 3.08861C15.185 3.17236 14.0331 4.51799 10.5581 6.15861V3.71924C10.5581 3.20111 10.1387 2.78174 9.62062 2.78174H5.46375C5.07687 1.69049 4.03437 0.906738 2.8125 0.906738C1.26188 0.906738 0 2.16799 0 3.71924C0 5.26986 1.26188 6.53174 2.8125 6.53174C4.03437 6.53174 5.07687 5.74799 5.46375 4.65674H8.68312V6.97424C7.60312 7.40799 6.36188 7.85049 4.9375 8.28674C4.58125 8.39549 4.32312 8.70549 4.28062 9.07611C4.26875 9.17924 4.06 11.0949 4.50938 13.9274H0.9375C0.42 13.9274 0 14.3474 0 14.8649C0 15.383 0.42 15.8024 0.9375 15.8024H4.88188C5.08669 16.6553 5.32606 17.4751 5.645 18.368H3.06938C2.55188 18.368 2.13188 18.7874 2.13188 19.3055C2.13188 19.823 2.55188 20.243 3.06938 20.243H6.40125C7.21481 22.0419 8.20487 23.6678 9.37687 25.1849H5.46375C5.07687 24.0936 4.03437 23.3099 2.8125 23.3099C1.26188 23.3099 0 24.5717 0 26.1224C0 27.673 1.26188 28.9349 2.8125 28.9349C4.03437 28.9349 5.07687 28.1511 5.46375 27.0599H10.9756C12.2962 28.468 13.7956 29.7611 15.4637 30.9242C15.7863 31.1492 16.2137 31.1492 16.5362 30.9242C18.2044 29.7611 19.7038 28.468 21.0244 27.0599H26.5362C26.9231 28.1511 27.9656 28.9349 29.1875 28.9349C30.7381 28.9349 32 27.673 32 26.1224C32 24.5717 30.7381 23.3099 29.1875 23.3099C27.9656 23.3099 26.9231 24.0936 26.5362 25.1849H22.6231C23.7923 23.6714 24.7833 22.046 25.5987 20.243H28.9306C29.4481 20.243 29.8681 19.823 29.8681 19.3055C29.8681 18.7874 29.4481 18.368 28.9306 18.368H26.355C26.6736 17.4762 26.913 16.6564 27.1181 15.8024ZM21.1588 20.6049C21.1588 21.5474 20.3925 22.3136 19.45 22.3136H12.55C11.6075 22.3136 10.8413 21.5474 10.8413 20.6049V15.2361C10.8413 14.4911 11.32 13.8567 11.9862 13.623V13.013C11.9862 10.7999 13.7869 8.99924 16 8.99924C18.2131 8.99924 20.0138 10.7999 20.0138 13.013V13.623C20.68 13.8567 21.1588 14.4911 21.1588 15.2361V20.6049Z" fill="#8559FD"/>
<path d="M12.7158 15.4023V20.4386H19.2833V15.4023H12.7158ZM16.9371 18.2511C16.9371 18.7692 16.5171 19.1886 15.9996 19.1886C15.4821 19.1886 15.0621 18.7692 15.0621 18.2511V17.5898C15.0621 17.0717 15.4821 16.6523 15.9996 16.6523C16.5171 16.6523 16.9371 17.0717 16.9371 17.5898V18.2511Z" fill="#8559FD"/>
<path d="M18.1388 13.0128V13.5271H13.8613V13.0128C13.8613 11.8334 14.8207 10.874 16.0001 10.874C17.1795 10.874 18.1388 11.8334 18.1388 13.0128Z" fill="#8559FD"/>
</g>
<defs>
<clipPath id="clip0_13_388">
<rect width="32" height="32" fill="white"/>
</clipPath>
</defs>
</svg>
