<svg width="58" height="24" viewBox="0 0 58 24" fill="none" xmlns="http://www.w3.org/2000/svg">
<g clip-path="url(#clip0_13_329)">
<path d="M32.5502 7.54004H25.6321C25.0557 7.54004 24.584 8.03729 24.584 8.64585V22.806C24.584 23.4146 25.0557 23.9123 25.6321 23.9123H32.5502C33.1264 23.9123 33.5982 23.4156 33.5982 22.8065V8.64585C33.5982 8.03729 33.1264 7.54004 32.5502 7.54004ZM27.9846 8.33712H30.1977C30.2678 8.33712 30.3245 8.39701 30.3245 8.47138C30.3245 8.5453 30.2678 8.60516 30.1977 8.60516H27.9846C27.9145 8.60516 27.8578 8.5453 27.8578 8.47138C27.8578 8.39701 27.9145 8.33712 27.9846 8.33712ZM29.0911 23.3594C28.8017 23.3594 28.567 23.112 28.567 22.806C28.567 22.5001 28.8017 22.2531 29.0911 22.2531C29.3806 22.2531 29.6153 22.5001 29.6153 22.806C29.6153 23.112 29.3806 23.3594 29.0911 23.3594ZM32.8689 21.8658H25.3133V9.29373H32.8689V21.8658Z" fill="#8559FD"/>
<path d="M52.6574 8.74846C53.5217 8.03935 53.8912 7.62294 53.765 7.49952C53.6095 7.37955 52.318 7.74986 49.89 8.61089C52.9272 7.29852 54.7156 6.50638 55.2553 6.23472C56.103 5.79725 56.8747 5.46365 57.5702 5.23438C56.6065 6.45877 55.5501 7.4943 54.4009 8.34099C53.6061 8.94427 51.7632 9.86505 48.8721 11.1036C50.531 10.2604 51.7927 9.4754 52.6574 8.74846Z" fill="#8559FD"/>
<path d="M53.5319 10.1982C55.234 9.57735 56.4464 9.21374 57.1682 9.10791C56.5721 9.71466 55.6647 10.4027 54.4462 11.172C53.2406 11.9446 51.0349 12.6998 47.8291 13.4372C51.3593 12.0328 52.7701 11.2937 52.0615 11.2196L48.4451 11.6695C51.0119 11.0062 52.7073 10.5157 53.5319 10.1982Z" fill="#8559FD"/>
<path d="M46.5527 9.76946C47.758 9.24028 48.6737 8.70392 49.2996 8.16064C48.8856 9.26134 48.0757 10.2193 46.8703 11.0345C45.6816 11.8353 44.1301 12.5464 42.2158 13.1673C43.5901 12.4579 45.1416 11.4455 46.8703 10.1294C45.4826 10.5385 44.3419 10.8791 43.4478 11.1507C44.3288 10.7415 45.3637 10.281 46.5527 9.76946Z" fill="#8559FD"/>
<path d="M50.0845 8.20323C52.7802 6.67892 54.4611 5.11595 55.1268 3.51408C49.2121 8.27362 43.5968 11.1599 38.2812 12.1726C45.372 9.96373 51.9373 5.90637 57.9782 0C57.2099 3.46128 54.5784 6.19561 50.0845 8.20323Z" fill="#8559FD"/>
<path d="M43.1497 15.7076C44.4114 15.4499 45.405 15.1324 46.1302 14.7549C45.5175 15.7359 44.5457 16.4908 43.2141 17.0205C41.8793 17.5497 40.2201 17.9113 38.2363 18.1054C39.7102 17.6994 41.4191 17.0431 43.3632 16.1364C41.9293 16.2423 40.7583 16.3322 39.8509 16.4063C40.7752 16.1944 41.8745 15.9617 43.1497 15.7076Z" fill="#8559FD"/>
<path d="M49.6372 21.0314C49.084 21.2892 48.3255 21.425 47.3617 21.4392C46.398 21.4392 44.4773 21.1288 41.5996 20.5072C44.3648 20.8708 46.1301 20.9536 46.8951 20.7561C47.1367 20.682 47.1502 20.6079 46.9348 20.5337C46.2396 20.2162 45.0836 19.8457 43.4674 19.4224C44.0635 19.5567 44.9212 19.7525 46.0406 20.01C47.1896 20.2676 48.0623 20.4723 48.6584 20.624L49.6372 21.0314Z" fill="#8559FD"/>
<path d="M43.5762 18.878C46.6961 18.6804 48.7312 18.2958 49.6815 17.7242C49.1283 17.6325 47.7175 17.4806 45.4491 17.2691C48.5389 17.3009 51.2894 17.1192 53.7004 16.7241C52.4947 17.6449 51.2958 18.2868 50.1039 18.6504C48.5306 19.1196 46.3548 19.1955 43.5762 18.878Z" fill="#8559FD"/>
<path d="M46.9346 16.205C49.0637 15.6615 50.4116 15.2223 50.9779 14.8872C51.5311 14.5696 51.6157 14.4197 51.2319 14.4373C50.8214 14.4656 49.4667 14.3967 47.1682 14.2309C50.8147 13.8533 52.9572 13.5976 53.5965 13.4635C54.517 13.2801 55.3384 13.1742 56.0604 13.146C54.8282 14.0526 53.5597 14.7479 52.255 15.2312C51.1189 15.6828 49.3456 16.0074 46.9346 16.205Z" fill="#8559FD"/>
<path d="M45.062 12.6696C46.2837 12.2145 47.2209 11.7382 47.8736 11.2407C47.4032 12.3134 46.5453 13.2132 45.3004 13.9398C44.0649 14.6631 42.4753 15.2735 40.5312 15.771C41.9353 15.1536 43.5384 14.2487 45.3399 13.056C43.9224 13.3559 42.7667 13.6189 41.8725 13.8447C42.7801 13.4989 43.8432 13.1071 45.062 12.6696Z" fill="#8559FD"/>
<path d="M44.8528 22.5029C44.0446 22.5807 43.5693 22.6194 43.427 22.6194C42.6453 22.6194 41.3836 22.3847 39.642 21.9157C38.2212 21.5204 36.9576 21.1199 35.8516 20.7142L36.6214 20.8517C39.5689 21.6352 41.3906 21.8979 42.0858 21.6404C41.8441 21.5522 41.5742 21.4394 41.2762 21.3016C40.723 21.0758 40.1849 20.841 39.6616 20.5977C40.0458 20.7211 40.8968 21.0086 42.2149 21.4602C43.4635 21.8979 44.3427 22.2454 44.8528 22.5029Z" fill="#8559FD"/>
<path d="M41.3012 14.0034C41.2282 14.081 41.1503 14.1958 41.0676 14.3474C40.7529 14.8451 39.6039 15.3284 37.6201 15.7976C39.0511 15.3423 39.9151 14.9121 40.2132 14.5063L38.7479 14.5963C39.2844 14.3985 40.1353 14.201 41.3012 14.0034Z" fill="#8559FD"/>
<path d="M39.7469 12.5799C40.27 12.3504 41.1064 12.0998 42.2554 11.8281C42.1861 11.9201 42.1147 12.0346 42.042 12.1724C41.7603 12.684 40.6408 13.2416 38.6836 13.8449C40.1014 13.3014 40.944 12.8181 41.2125 12.3947L39.7469 12.5799Z" fill="#8559FD"/>
<path d="M42.6627 18.4014C42.0798 18.8849 41.3414 19.2324 40.4469 19.4441C39.2711 19.7157 37.8471 19.7988 36.1748 19.6927C37.4497 19.541 38.874 19.3293 40.4469 19.0577L37.7048 18.47C38.5131 18.4242 39.8524 18.4083 41.7237 18.4224C42.0948 18.4224 42.4077 18.4155 42.6627 18.4014Z" fill="#8559FD"/>
<path d="M39.7017 16.4326C39.6322 16.5209 39.5543 16.625 39.4681 16.7449C39.1306 17.232 37.955 17.6253 35.9414 17.9252C37.3852 17.5936 38.2711 17.232 38.5989 16.8403H37.1285C37.6683 16.6743 38.5262 16.5384 39.7017 16.4326Z" fill="#8559FD"/>
<path d="M5.36956 8.74846C4.49709 8.03935 4.12431 7.62297 4.25148 7.49952C4.40848 7.37955 5.71203 7.74986 8.16234 8.61089C5.09715 7.29852 3.29228 6.50638 2.74745 6.23472C1.89189 5.79727 1.11297 5.46365 0.411133 5.23438C1.38374 6.4588 2.44988 7.49433 3.6098 8.34099C4.412 8.94427 6.27189 9.86505 9.18994 11.1036C7.51551 10.2604 6.24203 9.47543 5.36956 8.74846Z" fill="#8559FD"/>
<path d="M4.48733 10.1982C2.7694 9.57735 1.54601 9.21374 0.817383 9.10791C1.41909 9.71466 2.33481 10.4027 3.56478 11.1721C4.78136 11.9446 7.00743 12.6998 10.243 13.4372C6.68003 12.0328 5.25615 11.2937 5.97138 11.2196L9.62132 11.6695C7.03095 11.0062 5.3196 10.5157 4.48733 10.1982Z" fill="#8559FD"/>
<path d="M11.5313 9.76946C10.3147 9.24031 9.39059 8.70395 8.75879 8.16064C9.17668 9.26137 9.99392 10.2193 11.2105 11.0345C12.4104 11.8353 13.9762 12.5464 15.9083 13.1673C14.5213 12.4579 12.9552 11.4455 11.2105 10.1294C12.6111 10.5386 13.7623 10.8791 14.6649 11.1508C13.7757 10.7415 12.7312 10.281 11.5313 9.76946Z" fill="#8559FD"/>
<path d="M7.96673 8.20322C5.24613 6.67891 3.5496 5.11595 2.87785 3.51407C8.8472 8.27361 14.5145 11.1599 19.8793 12.1726C12.7228 9.96372 6.09674 5.90636 0 0C0.775401 3.46127 3.43113 6.19561 7.96673 8.20322Z" fill="#8559FD"/>
<path d="M14.9663 15.7076C13.6929 15.4499 12.6899 15.1324 11.958 14.7549C12.5764 15.7359 13.5572 16.4908 14.9012 17.0205C16.2482 17.5497 17.9229 17.9113 19.925 18.1054C18.4376 17.6994 16.7129 17.0431 14.7508 16.1364C16.1979 16.2423 17.3797 16.3322 18.2954 16.4063C17.3628 16.1944 16.2531 15.9617 14.9663 15.7076Z" fill="#8559FD"/>
<path d="M8.41797 21.0314C8.97619 21.2892 9.74174 21.425 10.7143 21.4392C11.6869 21.4392 13.6256 21.1288 16.53 20.5072C13.7391 20.8708 11.9575 20.9536 11.1854 20.7561C10.9414 20.682 10.928 20.6079 11.1452 20.5337C11.847 20.2163 13.0135 19.8457 14.6447 19.4224C14.0432 19.5567 13.1776 19.7525 12.0477 20.01C10.888 20.2676 10.0073 20.4723 9.40563 20.624L8.41797 21.0314Z" fill="#8559FD"/>
<path d="M14.5344 18.878C11.3857 18.6804 9.33171 18.2958 8.37251 17.7242C8.93074 17.6325 10.3546 17.4806 12.6442 17.2691C9.52561 17.3009 6.74977 17.1192 4.31641 16.7241C5.5332 17.6449 6.7432 18.2869 7.94637 18.6504C9.53407 19.1196 11.7301 19.1955 14.5344 18.878Z" fill="#8559FD"/>
<path d="M11.1459 16.205C8.9969 15.6615 7.63647 15.2223 7.06485 14.8872C6.50663 14.5697 6.42132 14.4197 6.80866 14.4373C7.22304 14.4656 8.59028 14.3967 10.9099 14.2309C7.22986 13.8534 5.06748 13.5976 4.42228 13.4635C3.49318 13.2801 2.66418 13.1743 1.93555 13.146C3.17915 14.0526 4.4592 14.7479 5.77612 15.2312C6.92267 15.6828 8.71251 16.0075 11.1459 16.205Z" fill="#8559FD"/>
<path d="M13.0349 12.6696C11.8017 12.2146 10.8559 11.7382 10.1973 11.2407C10.6721 12.3134 11.5377 13.2132 12.7942 13.9398C14.0411 14.6631 15.6455 15.2736 17.6074 15.771C16.1904 15.1536 14.5726 14.2487 12.7543 13.056C14.185 13.3559 15.3513 13.6189 16.2538 13.8447C15.3379 13.4989 14.2649 13.1071 13.0349 12.6696Z" fill="#8559FD"/>
<path d="M13.2461 22.5029C14.0617 22.5807 14.5414 22.6194 14.685 22.6194C15.4738 22.6194 16.7473 22.3847 18.5052 21.9158C19.9391 21.5204 21.2142 21.1199 22.3307 20.7142L21.5537 20.8517C18.579 21.6352 16.7405 21.8979 16.0386 21.6404C16.2826 21.5522 16.555 21.4394 16.8559 21.3016C17.4141 21.0758 17.9573 20.8411 18.4854 20.5977C18.0976 20.7211 17.2388 21.0086 15.9084 21.4602C14.6481 21.8979 13.7608 22.2454 13.2461 22.5029Z" fill="#8559FD"/>
<path d="M16.8311 14.0034C16.9046 14.081 16.9834 14.1958 17.0668 14.3475C17.3844 14.8451 18.544 15.3285 20.5461 15.7977C19.102 15.3423 18.2298 14.9121 17.9289 14.5063L19.4081 14.5963C18.8665 14.3985 18.0077 14.201 16.8311 14.0034Z" fill="#8559FD"/>
<path d="M18.4 12.5799C17.8719 12.3504 17.0278 12.0998 15.8682 11.8281C15.9382 11.9201 16.0101 12.0346 16.0837 12.1724C16.3679 12.684 17.4977 13.2416 19.473 13.8449C18.0423 13.3014 17.1917 12.8181 16.9209 12.3947L18.4 12.5799Z" fill="#8559FD"/>
<path d="M15.457 18.4014C16.0454 18.885 16.7907 19.2324 17.6932 19.4441C18.8799 19.7157 20.3172 19.7988 22.0051 19.6927C20.7182 19.541 19.2809 19.3293 17.6932 19.0577L20.4608 18.47C19.6452 18.4242 18.2933 18.4083 16.4047 18.4224C16.0303 18.4224 15.7144 18.4155 15.457 18.4014Z" fill="#8559FD"/>
<path d="M18.4453 16.4326C18.5156 16.5209 18.5941 16.625 18.681 16.7449C19.0218 17.232 20.2084 17.6253 22.2405 17.9252C20.7833 17.5936 19.8892 17.232 19.5582 16.8403H21.0423C20.4977 16.6743 19.6318 16.5384 18.4453 16.4326Z" fill="#8559FD"/>
</g>
<defs>
<clipPath id="clip0_13_329">
<rect width="58" height="24" fill="white"/>
</clipPath>
</defs>
</svg>
