<svg width="46" height="36" viewBox="0 0 46 36" fill="none" xmlns="http://www.w3.org/2000/svg">
<path d="M23.4662 17.0188C23.185 17.2063 22.8184 17.2063 22.5372 17.0188C20.7888 15.8652 14.7476 11.5095 15.6438 6.93622C16.0296 4.96801 18.7074 3.82662 20.788 4.78037C21.6355 5.15406 22.3658 5.75052 22.9012 6.50631C22.9333 6.56179 23.0043 6.58075 23.0599 6.54859C23.0775 6.53847 23.0921 6.52377 23.1022 6.50631C23.6376 5.75052 24.3679 5.15395 25.2154 4.78026C27.2941 3.82726 29.9737 4.96727 30.3595 6.93622C31.2558 11.5095 25.2147 15.8652 23.4662 17.0188Z" fill="#8559FD"/>
<path d="M24.1518 26.4825C26.7418 29.1662 31.6916 33.5622 36.3517 33.5622C41.6803 33.5622 46 29.2425 46 23.9139C46 18.5853 41.6803 14.2656 36.3517 14.2656C26.0138 14.2656 19.0688 31.8583 9.6517 31.8583C5.26418 31.8583 1.7073 28.3014 1.7073 23.9139C1.7073 19.5264 5.26418 15.9695 9.6517 15.9695C13.724 15.9695 18.3416 20.1611 20.727 22.6488C20.8756 22.4799 21.4138 21.8227 21.8431 21.3368C19.2531 18.6531 14.3119 14.2656 9.6517 14.2656C4.3231 14.2637 0.00191752 18.5819 6.37941e-07 23.9105C-0.00191624 29.2391 4.31628 33.5603 9.64489 33.5622C9.64712 33.5622 9.64947 33.5622 9.6517 33.5622C20.1104 33.5622 26.8294 15.9695 36.3517 15.9695C40.7392 15.9695 44.2961 19.5264 44.2961 23.9139C44.2961 28.3014 40.7392 31.8583 36.3517 31.8583C32.2794 31.8583 27.6704 27.6753 25.2849 25.1791C24.785 25.7472 24.9339 25.6306 24.1518 26.4825Z" fill="#8559FD"/>
</svg>
