<svg width="32" height="33" viewBox="0 0 32 33" fill="none" xmlns="http://www.w3.org/2000/svg">
<g clip-path="url(#clip0_1_89)">
<path d="M13.294 7.93598L14.097 10.166C14.989 12.641 16.938 14.59 19.413 15.482L21.643 16.285C21.844 16.358 21.844 16.643 21.643 16.715L19.413 17.518C16.938 18.41 14.989 20.359 14.097 22.834L13.294 25.064C13.221 25.265 12.936 25.265 12.864 25.064L12.061 22.834C11.169 20.359 9.22001 18.41 6.74501 17.518L4.51501 16.715C4.31401 16.642 4.31401 16.357 4.51501 16.285L6.74501 15.482C9.22001 14.59 11.169 12.641 12.061 10.166L12.864 7.93598C12.936 7.73398 13.221 7.73398 13.294 7.93598Z" fill="#0DD5F0"/>
<path d="M27.2051 0.971537L27.6121 2.10054C28.0641 3.35354 29.0511 4.34054 30.3041 4.79254L31.4331 5.19954C31.5351 5.23654 31.5351 5.38054 31.4331 5.41754L30.3041 5.82454C29.0511 6.27654 28.0641 7.26354 27.6121 8.51654L27.2051 9.64554C27.1681 9.74754 27.0241 9.74754 26.9871 9.64554L26.5801 8.51654C26.1281 7.26354 25.1411 6.27654 23.8881 5.82454L22.7591 5.41754C22.6571 5.38054 22.6571 5.23654 22.7591 5.19954L23.8881 4.79254C25.1411 4.34054 26.1281 3.35354 26.5801 2.10054L26.9871 0.971537C27.0241 0.868537 27.1691 0.868537 27.2051 0.971537Z" fill="#0DD5F0"/>
<path d="M23.3321 21.75L23.7391 22.879C24.1911 24.132 25.1781 25.119 26.4311 25.571L27.5601 25.978C27.6621 26.015 27.6621 26.159 27.5601 26.196L26.4311 26.603C25.1781 27.055 24.1911 28.042 23.7391 29.295L23.3321 30.424C23.2951 30.526 23.1511 30.526 23.1141 30.424L22.7071 29.295C22.2551 28.042 21.2681 27.055 20.0151 26.603L18.8861 26.196C18.7841 26.159 18.7841 26.015 18.8861 25.978L20.0151 25.571C21.2681 25.119 22.2551 24.132 22.7071 22.879L23.1141 21.75C23.1511 21.648 23.2961 21.648 23.3321 21.75Z" fill="#0DD5F0"/>
</g>
<defs>
<clipPath id="clip0_1_89">
<rect width="32" height="32" fill="white" transform="translate(0 0.5)"/>
</clipPath>
</defs>
</svg>
